G04 ================== begin FILE IDENTIFICATION RECORD ==================*
G04 Layout Name:  E:/Project/THEDC/MAINBOARD/allegro/mainboard.brd*
G04 Film Name:    BOTTOM*
G04 File Format:  Gerber RS274X*
G04 File Origin:  Cadence Allegro 16.5-P002*
G04 Origin Date:  Fri Oct 23 17:13:18 2015*
G04 *
G04 Layer:  VIA CLASS/BOTTOM*
G04 Layer:  PIN/BOTTOM*
G04 Layer:  ETCH/BOTTOM*
G04 *
G04 Offset:    (0.00 0.00)*
G04 Mirror:    No*
G04 Mode:      Positive*
G04 Rotation:  0*
G04 FullContactRelief:  No*
G04 UndefLineWidth:     10.00*
G04 ================== end FILE IDENTIFICATION RECORD ====================*
%FSLAX25Y25*MOIN*%
%IR0*IPPOS*OFA0.00000B0.00000*MIA0B0*SFA1.00000B1.00000*%
%ADD11C,.024*%
%ADD16C,.05906*%
%ADD17C,.08268*%
%ADD20C,.09449*%
%ADD10C,.07874*%
%ADD14R,.05906X.05906*%
%ADD12C,.08858*%
%ADD18R,.08268X.08268*%
%ADD13R,.08858X.08858*%
%ADD19C,.14173*%
%ADD15R,.14173X.14173*%
%ADD21C,.01*%
%ADD22C,.02*%
%ADD23C,.04*%
%ADD24C,.026*%
%ADD26C,.1091*%
%ADD27C,.14452*%
%ADD25R,.1091X.10908*%
%ADD28C,.17414*%
%ADD30C,.19176*%
%ADD29R,.19176X.19176*%
G75*
%LPD*%
G75*
G36*
G01X-186850Y-186850D02*
Y121918D01*
G02X-186167Y122201I400J0D01*
G01X-179202Y115235D01*
Y78330D01*
X-181630D01*
Y64470D01*
X-181528D01*
G02X-181155Y63924I0J-400D01*
G03X-179642Y56540I6455J-2524D01*
G02Y56260I-142J-140D01*
G03X-169758I4942J-4860D01*
G02Y56540I142J140D01*
G03X-168453Y58398I-4943J4859D01*
G01X-162230D01*
Y44670D01*
X-148370D01*
Y44772D01*
G02X-147824Y45145I400J0D01*
G03X-140440Y46658I2524J6455D01*
G02X-140160I140J-142D01*
G03Y56542I4860J4942D01*
G02X-140440I-140J142D01*
G03X-144631Y58499I-4860J-4942D01*
G02X-144876Y59180I38J398D01*
G01X-142298Y61757D01*
Y62953D01*
G03X-140440Y64258I-3001J6248D01*
G02X-140160I140J-142D01*
G03Y74142I4860J4942D01*
G02X-140440I-140J142D01*
G03X-147824Y75655I-4860J-4942D01*
G02X-148370Y76028I-146J373D01*
G01Y76130D01*
X-162230D01*
Y64402D01*
X-167770D01*
Y78330D01*
X-170198D01*
Y118965D01*
X-179698Y128465D01*
Y130091D01*
G02X-179048Y130402I400J-1D01*
G03X-169758Y140660I4348J5398D01*
G02Y140940I142J140D01*
G03X-168245Y148324I-4942J4860D01*
G02X-167872Y148870I373J146D01*
G01X-167770D01*
Y162730D01*
X-181630D01*
Y160302D01*
X-184265D01*
X-186167Y158399D01*
G02X-186850Y158682I-283J283D01*
G01Y186850D01*
X186850D01*
Y-186850D01*
X-186850D01*
G37*
%LPC*%
G75*
G36*
G01X-14764Y173436D02*
Y160164D01*
X-28036D01*
Y173436D01*
X-27781D01*
G03X-27418Y174004I0J400D01*
G02X-15382I6018J2796D01*
G03X-15019Y173436I363J-168D01*
G01X-14764D01*
G37*
G36*
G01X-31364D02*
Y160164D01*
X-44636D01*
Y173436D01*
X-44381D01*
G03X-44018Y174004I0J400D01*
G02X-31982I6018J2796D01*
G03X-31619Y173436I363J-168D01*
G01X-31364D01*
G37*
G36*
G01X-47964D02*
Y160164D01*
X-61236D01*
Y173436D01*
X-60981D01*
G03X-60618Y174004I0J400D01*
G02X-48582I6018J2796D01*
G03X-48219Y173436I363J-168D01*
G01X-47964D01*
G37*
G36*
G01X-64564D02*
Y160164D01*
X-77836D01*
Y173436D01*
X-77581D01*
G03X-77218Y174004I0J400D01*
G02X-65182I6018J2796D01*
G03X-64819Y173436I363J-168D01*
G01X-64564D01*
G37*
G36*
G01X-81164D02*
Y160164D01*
X-94436D01*
Y173436D01*
X-94181D01*
G03X-93818Y174004I0J400D01*
G02X-81782I6018J2796D01*
G03X-81419Y173436I363J-168D01*
G01X-81164D01*
G37*
G36*
G01X-97764D02*
Y160164D01*
X-111036D01*
Y173436D01*
X-110781D01*
G03X-110418Y174004I0J400D01*
G02X-98382I6018J2796D01*
G03X-98019Y173436I363J-168D01*
G01X-97764D01*
G37*
G36*
G01X-114364D02*
Y160164D01*
X-127636D01*
Y173436D01*
X-127381D01*
G03X-127018Y174004I0J400D01*
G02X-114982I6018J2796D01*
G03X-114619Y173436I363J-168D01*
G01X-114364D01*
G37*
G36*
G01X-130964D02*
Y160164D01*
X-144236D01*
Y173436D01*
X-143981D01*
G03X-143618Y174004I0J400D01*
G02X-131582I6018J2796D01*
G03X-131219Y173436I363J-168D01*
G01X-130964D01*
G37*
G36*
G01X138181Y170164D02*
G03X137818Y169596I0J-400D01*
G02X125782I-6018J-2796D01*
G03X125419Y170164I-363J168D01*
G01X125164D01*
Y183436D01*
X138436D01*
Y170164D01*
X138181D01*
G37*
G36*
G01X121881D02*
G03X121518Y169596I0J-400D01*
G02X109482I-6018J-2796D01*
G03X109119Y170164I-363J168D01*
G01X108864D01*
Y183436D01*
X122136D01*
Y170164D01*
X121881D01*
G37*
G36*
G01X105581D02*
G03X105218Y169596I0J-400D01*
G02X93182I-6018J-2796D01*
G03X92819Y170164I-363J168D01*
G01X92564D01*
Y183436D01*
X105836D01*
Y170164D01*
X105581D01*
G37*
G36*
G01X89281D02*
G03X88918Y169596I0J-400D01*
G02X76882I-6018J-2796D01*
G03X76519Y170164I-363J168D01*
G01X76264D01*
Y183436D01*
X89536D01*
Y170164D01*
X89281D01*
G37*
G36*
G01X72981D02*
G03X72618Y169596I0J-400D01*
G02X60582I-6018J-2796D01*
G03X60219Y170164I-363J168D01*
G01X59964D01*
Y183436D01*
X73236D01*
Y170164D01*
X72981D01*
G37*
G36*
G01X56681D02*
G03X56318Y169596I0J-400D01*
G02X44282I-6018J-2796D01*
G03X43919Y170164I-363J168D01*
G01X43664D01*
Y183436D01*
X56936D01*
Y170164D01*
X56681D01*
G37*
G36*
G01X40381D02*
G03X40018Y169596I0J-400D01*
G02X27982I-6018J-2796D01*
G03X27619Y170164I-363J168D01*
G01X27364D01*
Y183436D01*
X40636D01*
Y170164D01*
X40381D01*
G37*
G36*
G01X24081D02*
G03X23718Y169596I0J-400D01*
G02X11682I-6018J-2796D01*
G03X11319Y170164I-363J168D01*
G01X11064D01*
Y183436D01*
X24336D01*
Y170164D01*
X24081D01*
G37*
G36*
G01X55430Y117630D02*
Y103770D01*
X41570D01*
Y117630D01*
X41672D01*
G03X42045Y118176I0J400D01*
G02X43558Y125560I6455J2524D01*
G03Y125840I-142J140D01*
G02X53442I4942J4860D01*
G03Y125560I142J-140D01*
G02X54955Y118176I-4942J-4860D01*
G03X55328Y117630I373J-146D01*
G01X55430D01*
G37*
G36*
G01X40830D02*
Y103770D01*
X26970D01*
Y117630D01*
X27072D01*
G03X27445Y118176I0J400D01*
G02X28958Y125560I6455J2524D01*
G03Y125840I-142J140D01*
G02X38842I4942J4860D01*
G03Y125560I142J-140D01*
G02X40355Y118176I-4942J-4860D01*
G03X40728Y117630I373J-146D01*
G01X40830D01*
G37*
G36*
G01X-5698Y97333D02*
Y87643D01*
X1172Y80772D01*
X1234Y80761D01*
G02X-3061Y76466I-651J-3644D01*
G01X-3072Y76528D01*
X-11702Y85157D01*
Y97333D01*
G02X-5698I3002J2167D01*
G37*
G36*
G01X94530Y84830D02*
Y70970D01*
X80670D01*
Y84830D01*
X80772D01*
G03X81145Y85376I0J400D01*
G02X82658Y92760I6455J2524D01*
G03Y93040I-142J140D01*
G02X92542I4942J4860D01*
G03Y92760I142J-140D01*
G02X94055Y85376I-4942J-4860D01*
G03X94428Y84830I373J-146D01*
G01X94530D01*
G37*
G36*
G01X128669Y56184D02*
G03Y55616I281J-284D01*
G02X119331I-4669J-4716D01*
G03Y56184I-281J284D01*
G02Y65616I4669J4716D01*
G03Y66184I-281J284D01*
G02Y75616I4669J4716D01*
G03Y76184I-281J284D01*
G02Y85616I4669J4716D01*
G03Y86184I-281J284D01*
G02Y95616I4669J4716D01*
G03Y96184I-281J284D01*
G02Y105616I4669J4716D01*
G03Y106184I-281J284D01*
G02X117982Y113696I4669J4716D01*
G03X117619Y114264I-363J168D01*
G01X117364D01*
Y127536D01*
X130636D01*
Y114264D01*
X130381D01*
G03X130018Y113696I0J-400D01*
G02X128669Y106184I-6018J-2796D01*
G03Y105616I281J-284D01*
G02Y96184I-4669J-4716D01*
G03Y95616I281J-284D01*
G02Y86184I-4669J-4716D01*
G03Y85616I281J-284D01*
G02Y76184I-4669J-4716D01*
G03Y75616I281J-284D01*
G02Y66184I-4669J-4716D01*
G03Y65616I281J-284D01*
G02Y56184I-4669J-4716D01*
G37*
G36*
G01X124540Y29458D02*
G03X124260I-140J-142D01*
G02X116876Y27945I-4860J4942D01*
G03X116330Y27572I-146J-373D01*
G01Y27470D01*
X102470D01*
Y41330D01*
X116330D01*
Y41228D01*
G03X116876Y40855I400J0D01*
G02X124260Y39342I2524J-6455D01*
G03X124540I140J142D01*
G02X134260I4860J-4942D01*
G03X134540I140J142D01*
G02Y29458I4860J-4942D01*
G03X134260I-140J-142D01*
G02X124540I-4860J4942D01*
G37*
G36*
G01X-158860Y23658D02*
G03X-159140I-140J-142D01*
G02X-166524Y22145I-4860J4942D01*
G03X-167070Y21772I-146J-373D01*
G01Y21670D01*
X-180930D01*
Y35530D01*
X-167070D01*
Y35428D01*
G03X-166524Y35055I400J0D01*
G02X-159140Y33542I2524J-6455D01*
G03X-158860I140J142D01*
G02X-149140I4860J-4942D01*
G03X-148860I140J142D01*
G02Y23658I4860J-4942D01*
G03X-149140I-140J-142D01*
G02X-158860I-4860J4942D01*
G37*
G36*
G01X183430Y33830D02*
Y19970D01*
X169570D01*
Y33830D01*
X169672D01*
G03X170045Y34376I0J400D01*
G02X171558Y41760I6455J2524D01*
G03Y42040I-142J140D01*
G02X181442I4942J4860D01*
G03Y41760I142J-140D01*
G02X182955Y34376I-4942J-4860D01*
G03X183328Y33830I373J-146D01*
G01X183430D01*
G37*
G36*
G01X-108744Y5054D02*
Y61593D01*
X-141102Y93950D01*
Y138198D01*
G02X-136398Y142902I3502J1202D01*
G01X-122202D01*
G02X-119798I1202J-3502D01*
G01X-105602D01*
G02X-103198I1202J-3502D01*
G01X-89002D01*
G02X-86598I1202J-3502D01*
G01X-72402D01*
G02X-69998I1202J-3502D01*
G01X-55802D01*
G02X-53398I1202J-3502D01*
G01X-39202D01*
G02X-36798I1202J-3502D01*
G01X-22850D01*
X-10750Y155002D01*
X16050D01*
X19496Y151556D01*
X24498D01*
G02X26902I1202J-3502D01*
G01X40898D01*
G02X44760Y145480I1202J-3502D01*
G03X45048Y144802I288J-278D01*
G01X166527D01*
X169827Y148102D01*
X170251D01*
X170307Y148212D01*
G02X171558Y149960I6194J-3111D01*
G03Y150240I-142J140D01*
G02X181442I4942J4860D01*
G03Y149960I142J-140D01*
G02X182955Y142576I-4942J-4860D01*
G03X183328Y142030I373J-146D01*
G01X183430D01*
Y128170D01*
X169570D01*
Y138872D01*
G03X169228Y139013I-200J0D01*
G01X169013Y138798D01*
X13957D01*
X11660Y141095D01*
G03X10991Y140708I-283J-283D01*
G02X9242Y134040I-6691J-1808D01*
G03Y133760I142J-140D01*
G02X10755Y126376I-4942J-4860D01*
G03X11128Y125830I373J-146D01*
G01X11230D01*
Y111970D01*
X-2630D01*
Y125830D01*
X-2528D01*
G03X-2155Y126376I0J400D01*
G02X-642Y133760I6455J2524D01*
G03Y134040I-142J140D01*
G02X-1509Y142680I4942J4859D01*
G03X-1844Y143298I-335J218D01*
G01X-6357D01*
X-25545Y124111D01*
X-25556Y124049D01*
G02X-28549Y121056I-3644J651D01*
G01X-28611Y121045D01*
X-37157Y112498D01*
X-114133D01*
G02Y118502I-2167J3002D01*
G01X-39643D01*
X-32855Y125289D01*
X-32844Y125351D01*
G02X-29851Y128344I3644J-651D01*
G01X-29789Y128355D01*
X-22929Y135216D01*
G03X-23212Y135898I-283J282D01*
G01X-36798D01*
G02X-39202I-1202J3502D01*
G01X-53398D01*
G02X-55802I-1202J3502D01*
G01X-69998D01*
G02X-72402I-1202J3502D01*
G01X-86598D01*
G02X-89002I-1202J3502D01*
G01X-103198D01*
G02X-105602I-1202J3502D01*
G01X-119798D01*
G02X-122202I-1202J3502D01*
G01X-134098D01*
Y96850D01*
X-101742Y64493D01*
Y10433D01*
G03X-101059Y10150I400J0D01*
G01X-53208Y58002D01*
X11498D01*
Y71302D01*
X35702D01*
Y47698D01*
X11498D01*
Y48998D01*
X-49478D01*
X-99788Y-1312D01*
Y-5854D01*
X-110698D01*
Y5054D01*
X-108744D01*
G37*
G36*
G01X176930Y-20770D02*
Y-34630D01*
X163070D01*
Y-20770D01*
X163172D01*
G03X163545Y-20224I0J400D01*
G02X165058Y-12840I6455J2524D01*
G03Y-12560I-142J140D01*
G02Y-2840I4942J4860D01*
G03Y-2560I-142J140D01*
G02X174942I4942J4860D01*
G03Y-2840I142J-140D01*
G02Y-12560I-4942J-4860D01*
G03Y-12840I142J-140D01*
G02X176455Y-20224I-4942J-4860D01*
G03X176828Y-20770I373J-146D01*
G01X176930D01*
G37*
G36*
G01X-26460Y-40242D02*
G03X-26740I-140J-142D01*
G02X-36460I-4860J4942D01*
G03X-36740I-140J-142D01*
G02X-44124Y-41755I-4860J4942D01*
G03X-44670Y-42128I-146J-373D01*
G01Y-42230D01*
X-58530D01*
Y-28370D01*
X-44670D01*
Y-28472D01*
G03X-44124Y-28845I400J0D01*
G02X-36740Y-30358I2524J-6455D01*
G03X-36460I140J142D01*
G02X-26740I4860J-4942D01*
G03X-26460I140J142D01*
G02Y-40242I4860J-4942D01*
G37*
G36*
G01X-26740Y-45358D02*
G03X-26460I140J142D01*
G02Y-55242I4860J-4942D01*
G03X-26740I-140J-142D01*
G02X-36460I-4860J4942D01*
G03X-36740I-140J-142D01*
G02X-44124Y-56755I-4860J4942D01*
G03X-44670Y-57128I-146J-373D01*
G01Y-57230D01*
X-58530D01*
Y-43370D01*
X-44670D01*
Y-43472D01*
G03X-44124Y-43845I400J0D01*
G02X-36740Y-45358I2524J-6455D01*
G03X-36460I140J142D01*
G02X-26740I4860J-4942D01*
G37*
G36*
G01X174202Y-85502D02*
Y-100550D01*
X160550Y-114202D01*
X151536D01*
X150236Y-115502D01*
X133288D01*
Y-134388D01*
X114112D01*
Y-115502D01*
X106172D01*
G03X105791Y-116024I0J-400D01*
G02X95409I-5191J-1677D01*
G03X95028Y-115502I-381J122D01*
G01X87088D01*
Y-134388D01*
X67912D01*
Y-115502D01*
X65964D01*
X65664Y-115202D01*
X59866D01*
G03X59492Y-115745I-1J-400D01*
G02X49308I-5092J-1956D01*
G03X48934Y-115202I-373J143D01*
G01X37335D01*
X30335Y-108202D01*
X26124D01*
G03X25845Y-108888I0J-400D01*
G02X18241I-3802J-3912D01*
G03X17962Y-108202I-279J286D01*
G01X13322D01*
X7812Y-113712D01*
Y-118254D01*
X-3098D01*
Y-107346D01*
X1445D01*
X9592Y-99198D01*
X34065D01*
X41065Y-106198D01*
X65564D01*
X65964Y-105798D01*
X99698D01*
Y-88081D01*
G02X106702I3502J1202D01*
G01Y-105798D01*
X149936D01*
X151336Y-107198D01*
X157650D01*
X167198Y-97650D01*
Y-85502D01*
G02X174202I3502J1202D01*
G37*
G36*
G01X33343Y-84702D02*
X23357D01*
X17998Y-79343D01*
Y-56643D01*
X-14443Y-24202D01*
X-26643D01*
X-33502Y-17343D01*
Y-2767D01*
G02X-27498I3002J2167D01*
G01Y-13590D01*
G03X-26772Y-13821I400J0D01*
G02X-21579Y-12952I3026J-2133D01*
G01X-4803D01*
X5721Y-23476D01*
G03X6394Y-23284I283J282D01*
G02X7018Y-21926I3607J-835D01*
G01Y33713D01*
G02X13022I3002J2167D01*
G01Y-21981D01*
G02X13589Y-23211I-3022J-2139D01*
G03X14259Y-23396I388J98D01*
G01X16357Y-21298D01*
X45888D01*
G03X46171Y-20616I0J400D01*
G01X27298Y-1743D01*
Y28857D01*
X23220Y32936D01*
X22031D01*
X21979Y32900D01*
G02X22030Y38938I-2116J3037D01*
G01X25706D01*
X29277Y35368D01*
G03X29958Y35689I283J283D01*
G02X36347Y38571I3685J354D01*
G03X36923Y38562I292J273D01*
G02X42550Y33785I2625J-2610D01*
G01Y10595D01*
X55389Y-2245D01*
X55451Y-2256D01*
G02X51156Y-6551I-651J-3644D01*
G01X51145Y-6489D01*
X37327Y7328D01*
G03X36644Y7045I-283J-283D01*
G01Y1900D01*
X66009Y-27464D01*
X75036D01*
Y-40736D01*
X74781D01*
G03X74418Y-41304I0J-400D01*
G02X68058Y-50727I-6018J-2796D01*
G03X67754Y-51409I-21J-399D01*
G01X72943Y-56598D01*
X79833D01*
G02Y-62602I2167J-3002D01*
G01X74312D01*
G03X74029Y-63284I0J-400D01*
G01X81743Y-70998D01*
X88677D01*
G03X89069Y-70521I0J400D01*
G02X89056Y-70451I3633J711D01*
G01X89045Y-70389D01*
X86898Y-68243D01*
Y-50018D01*
G02X83882Y-41304I3002J5918D01*
G03X83519Y-40736I-363J168D01*
G01X83264D01*
Y-27464D01*
X96536D01*
Y-40736D01*
X96281D01*
G03X95918Y-41304I0J-400D01*
G02X92902Y-50018I-6018J-2796D01*
G01Y-65757D01*
X93289Y-66145D01*
X93351Y-66156D01*
G02X96392Y-70069I-651J-3644D01*
G03X97074Y-70381I399J-29D01*
G01X100457Y-66998D01*
X152143D01*
X155989Y-70845D01*
X156051Y-70856D01*
G02X151756Y-75151I-651J-3644D01*
G01X151745Y-75089D01*
X149657Y-73002D01*
X102943D01*
X98943Y-77002D01*
X93942D01*
G03X93548Y-77470I0J-400D01*
G02X87733Y-81102I-3648J-630D01*
G01X36943D01*
X33343Y-84702D01*
G37*
G54D26*
X-149357Y-400D03*
X-85557D03*
X-64057Y-162000D03*
X22043Y-163300D03*
X54400Y-180299D03*
X100600D03*
G54D27*
X-30800Y-173423D03*
Y-88777D03*
G54D25*
X-169043Y-400D03*
X-83743Y-162000D03*
X2357Y-163300D03*
G54D28*
X-157480Y-157480D03*
Y157480D03*
X157480Y-157480D03*
Y157480D03*
G54D30*
X-112100Y-172100D03*
X77500Y-144800D03*
X123700D03*
G54D29*
X-132100Y-172100D03*
%LPD*%
G75*
G36*
G01X33200Y68800D02*
Y50200D01*
X14000D01*
Y68800D01*
X33200D01*
G37*
G36*
G01X67000Y-113000D02*
X65900Y-111900D01*
Y-109400D01*
X67000Y-108300D01*
X148900D01*
X150300Y-109700D01*
Y-111900D01*
X149200Y-113000D01*
X103367D01*
G03X97833I-2767J-4701D01*
G01X67000D01*
G37*
G54D10*
X-157480Y-157480D03*
Y157480D03*
X157480Y-157480D03*
Y157480D03*
G54D20*
X-30800Y-173423D03*
Y-88777D03*
G54D11*
X-160867Y-123174D03*
Y-111174D03*
Y-117174D03*
X-148867Y-123174D03*
X-154867D03*
X-148867Y-111174D03*
X-154867D03*
X-148867Y-117174D03*
X-154867D03*
X-137600Y139400D03*
X-116300Y115500D03*
X-121000Y139400D03*
X-104400D03*
X-85239Y-123172D03*
X-91239D03*
X-97239D03*
X-85239Y-111172D03*
X-91239D03*
X-97239D03*
X-85239Y-117172D03*
X-91239D03*
X-97239D03*
X-71946Y74454D03*
Y101046D03*
X-87800Y139400D03*
X-71200D03*
X-54600D03*
X-38000D03*
X-23746Y-15954D03*
X-30500Y-600D03*
X-18280Y45620D03*
X-12880D03*
X-13300Y68000D03*
X-8700Y99500D03*
X-21400Y139400D03*
X-29200Y124700D03*
X10000Y-24120D03*
X3200Y-10600D03*
X21800Y7800D03*
X-1854Y5146D03*
X10020Y35880D03*
X19863Y35937D03*
X500Y37100D03*
X21608Y53562D03*
X2200Y65300D03*
X17608Y65562D03*
X21608Y61562D03*
X17608Y57562D03*
X583Y77117D03*
X5954Y104946D03*
X28200Y-77400D03*
X29608Y53562D03*
X33643Y36043D03*
X39548Y35952D03*
X25608Y65562D03*
X29608Y61562D03*
X25608Y57562D03*
X42100Y148054D03*
X25700D03*
X68400Y-110700D03*
X75400D03*
X82046D03*
X73870Y-85801D03*
X67870D03*
X73870Y-91801D03*
X67870D03*
X82000Y-59600D03*
X54800Y-5900D03*
X66454Y13354D03*
X59046D03*
X75400Y85900D03*
X92700Y-69800D03*
X89900Y-78100D03*
X103200Y-86879D03*
X141300Y-110700D03*
X134100D03*
X139622Y-85867D03*
X133622D03*
X139622Y-91867D03*
X133622D03*
X147846Y-110700D03*
X155400Y-74500D03*
X170700Y-84300D03*
G54D21*
G01X-174700Y61400D02*
X-146900D01*
X-145300Y63000D01*
Y69200D01*
G01X-116300Y115500D02*
X-38400D01*
X-29200Y124700D01*
G01X155400Y-74500D02*
X150900Y-70000D01*
X101700D01*
X97700Y-74000D01*
X80500D01*
X56800Y-50300D01*
Y-30900D01*
X50200Y-24300D01*
X17600D01*
X13500Y-28400D01*
X6400D01*
X-6046Y-15954D01*
X-23746D01*
G01X89900Y-78100D02*
X35700D01*
X32100Y-81700D01*
X24600D01*
X21000Y-78100D01*
Y-55400D01*
X-13200Y-21200D01*
X-25400D01*
X-30500Y-16100D01*
Y-600D01*
G01X-29200Y124700D02*
X-7600Y146300D01*
X10700D01*
X15200Y141800D01*
X167770D01*
X171070Y145100D01*
X176500D01*
G01X10020Y35880D02*
Y-24100D01*
X10000Y-24120D01*
G01X19863Y35937D02*
X24463D01*
X30300Y30100D01*
Y-500D01*
X61700Y-31900D01*
Y-49600D01*
X71700Y-59600D01*
X82000D01*
G01X-8700Y99500D02*
Y86400D01*
X583Y77117D01*
G01X28200Y-77400D02*
X37639Y-67961D01*
Y-53361D01*
X46900Y-44100D01*
G01X33643Y36043D02*
Y657D01*
X68400Y-34100D01*
G01X39548Y35952D02*
Y9352D01*
X54800Y-5900D01*
G01X92700Y-69800D02*
X89900Y-67000D01*
Y-44100D01*
G01X176500Y46900D02*
Y118900D01*
G01D02*
X183900Y126300D01*
Y147700D01*
G01D02*
X176500Y155100D01*
G54D12*
X-164000Y28600D03*
X-174700Y51400D03*
Y61400D03*
Y135800D03*
Y145800D03*
X-144000Y28600D03*
X-154000D03*
X-135300Y51600D03*
X-145300D03*
X-135300Y69200D03*
X-145300D03*
X-41600Y-50300D03*
Y-35300D03*
X-21600Y-50300D03*
X-31600D03*
X-21600Y-35300D03*
X-31600D03*
X4300Y138900D03*
Y128900D03*
X33900Y130700D03*
Y120700D03*
X48500Y130700D03*
Y120700D03*
X87600Y87900D03*
Y97900D03*
X139400Y34400D03*
X129400D03*
X119400D03*
X170000Y-7700D03*
Y-17700D03*
Y2300D03*
X176500Y46900D03*
Y36900D03*
Y145100D03*
Y155100D03*
G54D22*
G01X-105243Y-400D02*
Y63043D01*
X-137600Y95400D01*
Y139400D01*
G01X-121000D02*
X-137600D01*
G01X-104400D02*
X-121000D01*
G01X-87800D02*
X-104400D01*
G01X-71200D02*
X-87800D01*
G01X-54600D02*
X-71200D01*
G01X-38000D02*
X-54600D01*
G01X-21400D02*
X-9300Y151500D01*
X14600D01*
X18046Y148054D01*
X25700D01*
G01X-21400Y139400D02*
X-38000D01*
G01X42100Y148054D02*
X25700D01*
G01X103200Y-86879D02*
Y-110900D01*
G01X147846Y-110700D02*
X159100D01*
X170700Y-99100D01*
Y-84300D01*
G54D13*
X-174000Y28600D03*
X-174700Y71400D03*
Y155800D03*
X-155300Y51600D03*
Y69200D03*
X-51600Y-50300D03*
Y-35300D03*
X4300Y118900D03*
X33900Y110700D03*
X48500D03*
X109400Y34400D03*
X87600Y77900D03*
X170000Y-27700D03*
X176500Y26900D03*
Y135100D03*
G54D23*
G01X-174700Y155800D02*
X-182400D01*
X-184200Y154000D01*
Y126600D01*
X-174700Y117100D01*
Y71400D01*
G01X17900Y53500D02*
X-51343D01*
X-105243Y-400D01*
G01X68400Y-110700D02*
X39200D01*
X32200Y-103700D01*
X11457D01*
X2357Y-112800D01*
G54D14*
X-169043Y-400D03*
X-105243D03*
X-83743Y-162000D03*
X2357Y-163300D03*
Y-112800D03*
G54D24*
G01X-174700Y44269D02*
Y51400D01*
G01X-181831D02*
X-174700D01*
G01D02*
X-167569D01*
G01X-174700Y128669D02*
Y135800D01*
G01D02*
X-167569D01*
G01X-149357Y-6055D02*
Y-400D01*
G01X-144000Y21469D02*
Y28600D01*
G01X-154000Y21469D02*
Y28600D01*
G01X-149357Y-400D02*
Y5255D01*
G01X-155012Y-400D02*
X-149357D01*
G01D02*
X-143702D01*
G01X-135300Y44469D02*
Y51600D01*
G01D02*
Y58731D01*
G01Y51600D02*
X-128169D01*
G01X-144000Y28600D02*
Y35731D01*
G01Y28600D02*
X-136869D01*
G01X-154000D02*
Y35731D01*
G01X-135300Y62069D02*
Y69200D01*
G01D02*
Y76331D01*
G01Y69200D02*
X-128169D01*
G01X-137600Y176800D02*
Y183636D01*
G01X-144436Y176800D02*
X-137600D01*
G01D02*
X-130764D01*
G01X-112100Y-181889D02*
Y-172100D01*
G01D02*
Y-162311D01*
G01X-121889Y-172100D02*
X-112100D01*
G01D02*
X-102311D01*
G01X-104400Y176800D02*
Y183636D01*
G01X-111236Y176800D02*
X-104400D01*
G01D02*
X-97564D01*
G01X-121000D02*
Y183636D01*
G01X-127836Y176800D02*
X-121000D01*
G01D02*
X-114164D01*
G01X-69712Y-162000D02*
X-64057D01*
G01X-85557Y-6055D02*
Y-400D01*
G01D02*
Y5255D01*
G01X-91212Y-400D02*
X-85557D01*
G01D02*
X-79902D01*
G01X-71200Y176800D02*
Y183636D01*
G01X-78036Y176800D02*
X-71200D01*
G01D02*
X-64364D01*
G01X-87800D02*
Y183636D01*
G01X-94636Y176800D02*
X-87800D01*
G01D02*
X-80964D01*
G01X-64057Y-167655D02*
Y-162000D01*
G01D02*
Y-156345D01*
G01Y-162000D02*
X-58402D01*
G01X-44836Y176800D02*
X-38000D01*
G01X-54600D02*
Y183636D01*
G01X-61436Y176800D02*
X-54600D01*
G01D02*
X-47764D01*
G01X-21600Y-42431D02*
Y-35300D01*
G01D02*
Y-28169D01*
G01Y-35300D02*
X-14469D01*
G01X-21600Y-57431D02*
Y-50300D01*
G01D02*
Y-43169D01*
G01Y-50300D02*
X-14469D01*
G01X-31600Y-42431D02*
Y-35300D01*
G01D02*
Y-28169D01*
G01Y-57431D02*
Y-50300D01*
G01D02*
Y-43169D01*
G01X-21400Y176800D02*
Y183636D01*
G01X-28236Y176800D02*
X-21400D01*
G01D02*
X-14564D01*
G01X-38000D02*
Y183636D01*
G01Y176800D02*
X-31164D01*
G01X16388Y-163300D02*
X22043D01*
G01X16388Y-112800D02*
X22043D01*
G01X-2831Y138900D02*
X4300D01*
G01D02*
X11431D01*
G01X48745Y-180299D02*
X54400D01*
G01X22043Y-168955D02*
Y-163300D01*
G01D02*
Y-157645D01*
G01Y-163300D02*
X27698D01*
G01X22043Y-118455D02*
Y-112800D01*
G01D02*
X27698D01*
G01X48500Y130700D02*
Y137831D01*
G01X41369Y130700D02*
X48500D01*
G01D02*
X55631D01*
G01X33900D02*
Y137831D01*
G01X26769Y130700D02*
X33900D01*
G01D02*
X41031D01*
G01X54400Y-180299D02*
Y-174644D01*
G01Y-180299D02*
X60055D01*
G01X80469Y97900D02*
X87600D01*
G01X100600Y-180299D02*
Y-174644D01*
G01X94945Y-180299D02*
X100600D01*
G01D02*
X106255D01*
G01X87600Y97900D02*
Y105031D01*
G01Y97900D02*
X94731D01*
G01X139400Y27269D02*
Y34400D01*
G01D02*
Y41531D01*
G01Y34400D02*
X146531D01*
G01X162869Y-17700D02*
X170000D01*
G01D02*
X177131D01*
G01X169369Y46900D02*
X176500D01*
G01X169369Y155100D02*
X176500D01*
G01Y46900D02*
X183631D01*
G01X176500Y155100D02*
Y162231D01*
G01Y155100D02*
X183631D01*
G54D15*
X-132100Y-172100D03*
X77500Y-124800D03*
X123700D03*
G54D16*
X-149357Y-400D03*
X-85557D03*
X-64057Y-162000D03*
X22043Y-163300D03*
Y-112800D03*
X54400Y-180299D03*
Y-117701D03*
X100600Y-180299D03*
Y-117701D03*
G54D17*
X-137600Y176800D03*
X-104400D03*
X-121000D03*
X-87800D03*
X-71200D03*
X-38000D03*
X-54600D03*
X-21400D03*
X17700Y166800D03*
X46900Y-44100D03*
X25400D03*
X34000Y166800D03*
X50300D03*
X68400Y-44100D03*
X66600Y166800D03*
X82900D03*
X89900Y-44100D03*
X99200Y166800D03*
X124000Y50900D03*
Y60900D03*
Y70900D03*
Y80900D03*
Y90900D03*
Y100900D03*
Y110900D03*
X131800Y166800D03*
X115500D03*
G54D18*
X-137600D03*
X-104400D03*
X-121000D03*
X-87800D03*
X-71200D03*
X-38000D03*
X-54600D03*
X-21400D03*
X17700Y176800D03*
X46900Y-34100D03*
X25400D03*
X34000Y176800D03*
X50300D03*
X68400Y-34100D03*
X66600Y176800D03*
X82900D03*
X89900Y-34100D03*
X99200Y176800D03*
X124000Y120900D03*
X131800Y176800D03*
X115500D03*
G54D19*
X-112100Y-172100D03*
X77500Y-144800D03*
X123700D03*
M02*
