G04 ================== begin FILE IDENTIFICATION RECORD ==================*
G04 Layout Name:  E:/Project/THEDC/MAINBOARD/allegro/mainboard.brd*
G04 Film Name:    SILK_TOP*
G04 File Format:  Gerber RS274X*
G04 File Origin:  Cadence Allegro 16.5-P002*
G04 Origin Date:  Fri Oct 23 17:13:18 2015*
G04 *
G04 Layer:  REF DES/SILKSCREEN_TOP*
G04 Layer:  PACKAGE GEOMETRY/SILKSCREEN_TOP*
G04 Layer:  BOARD GEOMETRY/SILKSCREEN_TOP*
G04 *
G04 Offset:    (0.00 0.00)*
G04 Mirror:    No*
G04 Mode:      Positive*
G04 Rotation:  0*
G04 FullContactRelief:  No*
G04 UndefLineWidth:     0.00*
G04 ================== end FILE IDENTIFICATION RECORD ====================*
%FSLAX25Y25*MOIN*%
%IR0*IPPOS*OFA0.00000B0.00000*MIA0B0*SFA1.00000B1.00000*%
%ADD10C,.01969*%
%ADD11C,.00984*%
%ADD12C,.00787*%
G75*
%LPD*%
G75*
G54D10*
G01X2343Y81841D02*
G03I-984J0D01*
G54D11*
G01X-181638Y28600D02*
G03I-492J0D01*
G01X-163017Y51600D02*
G03I-492J0D01*
G01Y69200D02*
G03I-492J0D01*
G01X-174208Y79609D02*
G03I-492J0D01*
G01Y164009D02*
G03I-492J0D01*
G01X-143950Y-172100D02*
G03I-493J0D01*
G01X-135092Y-77666D02*
G03I-491J0D01*
G01X-137108Y158906D02*
G03I-492J0D01*
G01X-126708Y-15557D02*
G03I-492J0D01*
G01X-103908Y158906D02*
G03I-492J0D01*
G01X-120508D02*
G03I-492J0D01*
G01X-71492Y-77666D02*
G03I-491J0D01*
G01X-87308Y158906D02*
G03I-492J0D01*
G01X-70708D02*
G03I-492J0D01*
G01X-59238Y-50300D02*
G03I-492J0D01*
G01Y-35300D02*
G03I-492J0D01*
G01X-64108Y-15557D02*
G03I-492J0D01*
G01X-54108Y158906D02*
G03I-492J0D01*
G01X-20908D02*
G03I-492J0D01*
G01X-37508D02*
G03I-492J0D01*
G01X-7991Y85581D02*
G03I-492J0D01*
G01X4792Y110691D02*
G03I-492J0D01*
G01X6882Y166788D02*
G03I-492J0D01*
G01X18192Y184694D02*
G03I-492J0D01*
G01X47392Y-26206D02*
G03I-492J0D01*
G01X25892D02*
G03I-492J0D01*
G01X34392Y102491D02*
G03I-492J0D01*
G01X48992D02*
G03I-492J0D01*
G01X34492Y184694D02*
G03I-492J0D01*
G01X50792D02*
G03I-492J0D01*
G01X77993Y-112457D02*
G03I-493J0D01*
G01X58003Y-76389D02*
G03I-492J0D01*
G01X68892Y-26206D02*
G03I-492J0D01*
G01X67092Y184694D02*
G03I-492J0D01*
G01X90392Y-26206D02*
G03I-492J0D01*
G01X101762Y34400D02*
G03I-492J0D01*
G01X88092Y69691D02*
G03I-492J0D01*
G01X83392Y184694D02*
G03I-492J0D01*
G01X99692D02*
G03I-492J0D01*
G01X124193Y-112457D02*
G03I-493J0D01*
G01X123703Y-76389D02*
G03I-492J0D01*
G01X124492Y128715D02*
G03I-492J0D01*
G01X132292Y184694D02*
G03I-492J0D01*
G01X115992D02*
G03I-492J0D01*
G01X170492Y-35830D02*
G03I-492J0D01*
G01X176992Y18691D02*
G03I-492J0D01*
G01Y126891D02*
G03I-492J0D01*
G54D12*
G01X-173379Y-94202D02*
Y-90265D01*
X-133221D01*
Y-94202D01*
G01X-129178Y-63686D02*
Y-73922D01*
X-176422D01*
Y-63686D01*
G01X-129178Y-36914D02*
Y-26678D01*
X-176422D01*
Y-36914D01*
G01X-139515Y-400D02*
G03I-19685J0D01*
G01X-179866Y22694D02*
Y34506D01*
X-138134D01*
Y22694D01*
X-179866D01*
G01X-175539Y-2369D02*
Y1569D01*
G01X-177507Y-400D02*
X-173570D01*
G01X-161245Y45694D02*
Y57506D01*
X-129355D01*
Y45694D01*
X-161245D01*
G01X-180606Y77345D02*
X-168794D01*
Y45455D01*
X-180606D01*
Y77345D01*
G01X-161245Y63294D02*
Y75106D01*
X-129355D01*
Y63294D01*
X-161245D01*
G01X-180606Y161745D02*
X-168794D01*
Y129855D01*
X-180606D01*
Y161745D01*
G01X-142179Y-182139D02*
Y-162061D01*
X-102021D01*
Y-182139D01*
X-142179D01*
G01X-132712Y-10833D02*
X-134287D01*
Y10033D01*
X-132712D01*
G01X-132088Y161170D02*
X-143112D01*
Y182430D01*
X-132088D01*
Y161170D01*
G01X-136419Y151400D02*
X-138781D01*
G01X-109779Y-94202D02*
Y-90265D01*
X-69621D01*
Y-94202D01*
G01X-66478Y-63686D02*
Y-73922D01*
X-113722D01*
Y-63686D01*
G01X-66478Y-36914D02*
Y-26678D01*
X-113722D01*
Y-36914D01*
G01X-75715Y-400D02*
G03I-19685J0D01*
G01X-121688Y-10833D02*
X-120113D01*
Y10033D01*
X-121688D01*
G01X-111739Y-2369D02*
Y1569D01*
G01X-113707Y-400D02*
X-109770D01*
G01X-98888Y161170D02*
X-109912D01*
Y182430D01*
X-98888D01*
Y161170D01*
G01X-115488D02*
X-126512D01*
Y182430D01*
X-115488D01*
Y161170D01*
G01X-103219Y151400D02*
X-105581D01*
G01X-119819D02*
X-122181D01*
G01X-90239Y-163969D02*
Y-160031D01*
G01X-92207Y-162000D02*
X-88270D01*
G01X-54215D02*
G03I-19685J0D01*
G01X-70112Y-10833D02*
X-71687D01*
Y10033D01*
X-70112D01*
G01X-82288Y161170D02*
X-93312D01*
Y182430D01*
X-82288D01*
Y161170D01*
G01X-65688D02*
X-76712D01*
Y182430D01*
X-65688D01*
Y161170D01*
G01X-86619Y151400D02*
X-88981D01*
G01X-70019D02*
X-72381D01*
G01X-49304Y-79525D02*
Y-182675D01*
X-12296D01*
Y-79525D01*
X-49304D01*
G01X-57466Y-56206D02*
Y-44394D01*
X-15734D01*
Y-56206D01*
X-57466D01*
G01Y-41206D02*
Y-29394D01*
X-15734D01*
Y-41206D01*
X-57466D01*
G01X-59088Y-10833D02*
X-57513D01*
Y10033D01*
X-59088D01*
G01X-68600Y68481D02*
Y66119D01*
G01X-54621Y109441D02*
X-58952D01*
Y64559D01*
X-54621D01*
G01X-44779Y109441D02*
X-40448D01*
Y64559D01*
X-44779D01*
G01X-68600Y107881D02*
Y105519D01*
G01X-32488Y161170D02*
X-43512D01*
Y182430D01*
X-32488D01*
Y161170D01*
G01X-49088D02*
X-60112D01*
Y182430D01*
X-49088D01*
Y161170D01*
G01X-53419Y151400D02*
X-55781D01*
G01X-20400Y-11781D02*
Y-9419D01*
G01Y-1781D02*
Y581D01*
G01X-27200Y44419D02*
Y46781D01*
G01X-21100Y64581D02*
Y62219D01*
G01Y74281D02*
Y71919D01*
G01X-15888Y161170D02*
X-26912D01*
Y182430D01*
X-15888D01*
Y161170D01*
G01X-20219Y151400D02*
X-22581D01*
G01X-36819D02*
X-39181D01*
G01X-4139Y-165269D02*
Y-161331D01*
G01X-6107Y-163300D02*
X-2170D01*
G01X31885D02*
G03I-19685J0D01*
G01Y-112800D02*
G03I-19685J0D01*
G01X-4139Y-114769D02*
Y-110831D01*
G01X-6107Y-112800D02*
X-2170D01*
G01X19888Y-28470D02*
X30912D01*
Y-49730D01*
X19888D01*
Y-28470D01*
G01X-5200Y-11781D02*
Y-9419D01*
G01X3281Y16700D02*
X919D01*
G01X-5200Y-1781D02*
Y581D01*
G01X-2184Y33416D02*
Y85384D01*
X49784D01*
Y33416D01*
X-2184D01*
G01X10206Y112955D02*
X-1606D01*
Y144845D01*
X10206D01*
Y112955D01*
G01X1381Y101600D02*
X-981D01*
G01X10819D02*
X13181D01*
G01X5209Y171119D02*
X-6209D01*
Y173481D01*
X5209D01*
Y171119D01*
G01X12188Y182430D02*
X23212D01*
Y161170D01*
X12188D01*
Y182430D01*
G01X18881Y151400D02*
X16519D01*
G01X46526Y-127346D02*
X62274D01*
Y-170654D01*
X46526D01*
Y-127346D01*
G01X41388Y-28470D02*
X52412D01*
Y-49730D01*
X41388D01*
Y-28470D01*
G01X44319Y16700D02*
X46681D01*
G01X20619D02*
X22981D01*
G01X39806Y104755D02*
X27994D01*
Y136645D01*
X39806D01*
Y104755D01*
G01X54406D02*
X42594D01*
Y136645D01*
X54406D01*
Y104755D01*
G01X28488Y182430D02*
X39512D01*
Y161170D01*
X28488D01*
Y182430D01*
G01X44788D02*
X55812D01*
Y161170D01*
X44788D01*
Y182430D01*
G01X35181Y151400D02*
X32819D01*
G01X51481D02*
X49119D01*
G01X67461Y-114721D02*
X87539D01*
Y-154879D01*
X67461D01*
Y-114721D01*
G01X54400Y-170654D02*
Y-175969D01*
G01Y-127346D02*
Y-122031D01*
G01X63613Y-95483D02*
Y-98043D01*
X77787D01*
Y-95483D01*
G01X78700Y-103019D02*
Y-105381D01*
G01X77787Y-80917D02*
Y-78357D01*
X63613D01*
Y-80917D01*
G01X62888Y-28470D02*
X73912D01*
Y-49730D01*
X62888D01*
Y-28470D01*
G01X51619Y16700D02*
X53981D01*
G01X67400Y77919D02*
Y80281D01*
G01Y84719D02*
Y87081D01*
G01Y69619D02*
Y71981D01*
G01Y92319D02*
Y94681D01*
G01X61088Y182430D02*
X72112D01*
Y161170D01*
X61088D01*
Y182430D01*
G01X77388D02*
X88412D01*
Y161170D01*
X77388D01*
Y182430D01*
G01X67781Y151400D02*
X65419D01*
G01X100600Y-170654D02*
Y-175969D01*
G01X92726Y-127346D02*
X108474D01*
Y-170654D01*
X92726D01*
Y-127346D01*
G01X100600D02*
Y-122031D01*
G01X94300Y-85581D02*
Y-83219D01*
G01X94400Y-90819D02*
Y-93181D01*
G01X84388Y-28470D02*
X95412D01*
Y-49730D01*
X84388D01*
Y-28470D01*
G01X103534Y28494D02*
Y40306D01*
X145266D01*
Y28494D01*
X103534D01*
G01X93506Y71955D02*
X81694D01*
Y103845D01*
X93506D01*
Y71955D01*
G01X93688Y182430D02*
X104712D01*
Y161170D01*
X93688D01*
Y182430D01*
G01X109988D02*
X121012D01*
Y161170D01*
X109988D01*
Y182430D01*
G01X84081Y151400D02*
X81719D01*
G01X100381D02*
X98019D01*
G01X113661Y-114721D02*
X133739D01*
Y-154879D01*
X113661D01*
Y-114721D01*
G01X129313Y-95483D02*
Y-98043D01*
X143487D01*
Y-95483D01*
G01Y-80917D02*
Y-78357D01*
X129313D01*
Y-80917D01*
G01X118488Y126451D02*
X129512D01*
Y45349D01*
X118488D01*
Y126451D01*
G01X126288Y182430D02*
X137312D01*
Y161170D01*
X126288D01*
Y182430D01*
G01X116681Y151400D02*
X114319D01*
G01X132981D02*
X130619D01*
G01X144500Y-103019D02*
Y-105381D01*
G01X160900Y-85481D02*
Y-83119D01*
G01X161000Y-90819D02*
Y-93181D01*
G01X175906Y-33566D02*
X164094D01*
Y8166D01*
X175906D01*
Y-33566D01*
G01X155481Y-24400D02*
X153119D01*
G01X182406Y20955D02*
X170594D01*
Y52845D01*
X182406D01*
Y20955D01*
G01Y129155D02*
X170594D01*
Y161045D01*
X182406D01*
Y129155D01*
M02*
