G04 ================== begin FILE IDENTIFICATION RECORD ==================*
G04 Layout Name:  E:/Project/THEDC/MAINBOARD/allegro/mainboard.brd*
G04 Film Name:    SOLDER_BOTTOM*
G04 File Format:  Gerber RS274X*
G04 File Origin:  Cadence Allegro 16.5-P002*
G04 Origin Date:  Fri Oct 23 17:13:18 2015*
G04 *
G04 Layer:  VIA CLASS/SOLDERMASK_BOTTOM*
G04 Layer:  PIN/SOLDERMASK_BOTTOM*
G04 Layer:  PACKAGE GEOMETRY/SOLDERMASK_BOTTOM*
G04 *
G04 Offset:    (0.00 0.00)*
G04 Mirror:    No*
G04 Mode:      Positive*
G04 Rotation:  0*
G04 FullContactRelief:  No*
G04 UndefLineWidth:     0.00*
G04 ================== end FILE IDENTIFICATION RECORD ====================*
%FSLAX25Y25*MOIN*%
%IR0*IPPOS*OFA0.00000B0.00000*MIA0B0*SFA1.00000B1.00000*%
%ADD11C,.044*%
%ADD16C,.05906*%
%ADD17C,.08268*%
%ADD20C,.09449*%
%ADD14R,.05906X.05906*%
%ADD12C,.08858*%
%ADD18R,.08268X.08268*%
%ADD13R,.08858X.08858*%
%ADD19C,.14173*%
%ADD10C,.1378*%
%ADD15R,.14173X.14173*%
%LPD*%
G75*
G54D10*
X-157480Y-157480D03*
Y157480D03*
X157480Y-157480D03*
Y157480D03*
G54D20*
X-30800Y-173423D03*
Y-88777D03*
G54D11*
X-160867Y-123174D03*
Y-111174D03*
Y-117174D03*
X-148867Y-123174D03*
X-154867D03*
X-148867Y-111174D03*
X-154867D03*
X-148867Y-117174D03*
X-154867D03*
X-137600Y139400D03*
X-116300Y115500D03*
X-121000Y139400D03*
X-104400D03*
X-85239Y-123172D03*
X-91239D03*
X-97239D03*
X-85239Y-111172D03*
X-91239D03*
X-97239D03*
X-85239Y-117172D03*
X-91239D03*
X-97239D03*
X-71946Y74454D03*
Y101046D03*
X-87800Y139400D03*
X-71200D03*
X-54600D03*
X-38000D03*
X-23746Y-15954D03*
X-30500Y-600D03*
X-18280Y45620D03*
X-12880D03*
X-13300Y68000D03*
X-8700Y99500D03*
X-21400Y139400D03*
X-29200Y124700D03*
X10000Y-24120D03*
X3200Y-10600D03*
X21800Y7800D03*
X-1854Y5146D03*
X10020Y35880D03*
X19863Y35937D03*
X500Y37100D03*
X21608Y53562D03*
X2200Y65300D03*
X17608Y65562D03*
X21608Y61562D03*
X17608Y57562D03*
X583Y77117D03*
X5954Y104946D03*
X28200Y-77400D03*
X29608Y53562D03*
X33643Y36043D03*
X39548Y35952D03*
X25608Y65562D03*
X29608Y61562D03*
X25608Y57562D03*
X42100Y148054D03*
X25700D03*
X68400Y-110700D03*
X75400D03*
X82046D03*
X73870Y-85801D03*
X67870D03*
X73870Y-91801D03*
X67870D03*
X82000Y-59600D03*
X54800Y-5900D03*
X66454Y13354D03*
X59046D03*
X75400Y85900D03*
X92700Y-69800D03*
X89900Y-78100D03*
X103200Y-86879D03*
X141300Y-110700D03*
X134100D03*
X139622Y-85867D03*
X133622D03*
X139622Y-91867D03*
X133622D03*
X147846Y-110700D03*
X155400Y-74500D03*
X170700Y-84300D03*
G54D12*
X-164000Y28600D03*
X-174700Y51400D03*
Y61400D03*
Y135800D03*
Y145800D03*
X-144000Y28600D03*
X-154000D03*
X-135300Y51600D03*
X-145300D03*
X-135300Y69200D03*
X-145300D03*
X-41600Y-50300D03*
Y-35300D03*
X-21600Y-50300D03*
X-31600D03*
X-21600Y-35300D03*
X-31600D03*
X4300Y138900D03*
Y128900D03*
X33900Y130700D03*
Y120700D03*
X48500Y130700D03*
Y120700D03*
X87600Y87900D03*
Y97900D03*
X139400Y34400D03*
X129400D03*
X119400D03*
X170000Y-7700D03*
Y-17700D03*
Y2300D03*
X176500Y46900D03*
Y36900D03*
Y145100D03*
Y155100D03*
G54D13*
X-174000Y28600D03*
X-174700Y71400D03*
Y155800D03*
X-155300Y51600D03*
Y69200D03*
X-51600Y-50300D03*
Y-35300D03*
X4300Y118900D03*
X33900Y110700D03*
X48500D03*
X109400Y34400D03*
X87600Y77900D03*
X170000Y-27700D03*
X176500Y26900D03*
Y135100D03*
G54D14*
X-169043Y-400D03*
X-105243D03*
X-83743Y-162000D03*
X2357Y-163300D03*
Y-112800D03*
G54D15*
X-132100Y-172100D03*
X77500Y-124800D03*
X123700D03*
G54D16*
X-149357Y-400D03*
X-85557D03*
X-64057Y-162000D03*
X22043Y-163300D03*
Y-112800D03*
X54400Y-180299D03*
Y-117701D03*
X100600Y-180299D03*
Y-117701D03*
G54D17*
X-137600Y176800D03*
X-104400D03*
X-121000D03*
X-87800D03*
X-71200D03*
X-38000D03*
X-54600D03*
X-21400D03*
X17700Y166800D03*
X46900Y-44100D03*
X25400D03*
X34000Y166800D03*
X50300D03*
X68400Y-44100D03*
X66600Y166800D03*
X82900D03*
X89900Y-44100D03*
X99200Y166800D03*
X124000Y50900D03*
Y60900D03*
Y70900D03*
Y80900D03*
Y90900D03*
Y100900D03*
Y110900D03*
X131800Y166800D03*
X115500D03*
G54D18*
X-137600D03*
X-104400D03*
X-121000D03*
X-87800D03*
X-71200D03*
X-38000D03*
X-54600D03*
X-21400D03*
X17700Y176800D03*
X46900Y-34100D03*
X25400D03*
X34000Y176800D03*
X50300D03*
X68400Y-34100D03*
X66600Y176800D03*
X82900D03*
X89900Y-34100D03*
X99200Y176800D03*
X124000Y120900D03*
X131800Y176800D03*
X115500D03*
G54D19*
X-112100Y-172100D03*
X77500Y-144800D03*
X123700D03*
M02*
